<svg xmlns="http://www.w3.org/2000/svg" width="30" height="27.391" viewBox="0 0 30 27.391"><defs><style>.a{fill:#dbdbdb;}</style></defs><path class="a" d="M3.913,5.413V1.5H6.522V5.413h3.913V8.022H6.522v3.913H3.913V8.022H0V5.413Zm3.913,7.826V9.326h3.913V5.413h9.13l2.387,2.609h4.135A2.616,2.616,0,0,1,30,10.63V26.283a2.616,2.616,0,0,1-2.609,2.609H6.522a2.616,2.616,0,0,1-2.609-2.609V13.239Zm9.13,11.739a6.522,6.522,0,1,0-6.522-6.522A6.524,6.524,0,0,0,16.957,24.978Zm-4.174-6.522a4.174,4.174,0,1,0,4.174-4.174A4.169,4.169,0,0,0,12.783,18.457Z" transform="translate(0 -1.5)"/></svg>