<svg xmlns="http://www.w3.org/2000/svg" width="32" height="32" viewBox="0 0 32 32"><defs><style>.a{fill:none;stroke:#00a388;stroke-linecap:round;stroke-linejoin:round;stroke-width:2px;}</style></defs><path class="a" d="M34.5,18.667A13.967,13.967,0,0,1,33,25a14.167,14.167,0,0,1-12.667,7.833A13.967,13.967,0,0,1,14,31.333L4.5,34.5,7.667,25a13.967,13.967,0,0,1-1.5-6.333A14.167,14.167,0,0,1,14,6a13.967,13.967,0,0,1,6.333-1.5h.833A14.133,14.133,0,0,1,34.5,17.833Z" transform="translate(-3.5 -3.5)"/></svg>