<svg xmlns="http://www.w3.org/2000/svg" width="26.389" height="26.396" viewBox="0 0 26.389 26.396"><defs><style>.a{fill:#fff;}</style></defs><path class="a" d="M28.711,17.695a3.4,3.4,0,0,1,2.178-3.168A13.46,13.46,0,0,0,29.26,10.6a3.441,3.441,0,0,1-1.381.3,3.388,3.388,0,0,1-3.1-4.769A13.419,13.419,0,0,0,20.863,4.5a3.393,3.393,0,0,1-6.336,0A13.46,13.46,0,0,0,10.6,6.129a3.388,3.388,0,0,1-.7,3.78l-.844.615L7.5,10.9a3.329,3.329,0,0,1-1.381-.3A13.758,13.758,0,0,0,4.5,14.533a3.395,3.395,0,0,1,.007,6.336,13.46,13.46,0,0,0,1.629,3.924,3.39,3.39,0,0,1,4.474,4.474A13.539,13.539,0,0,0,14.533,30.9a3.387,3.387,0,0,1,6.322,0,13.46,13.46,0,0,0,3.924-1.629,3.393,3.393,0,0,1,4.474-4.474,13.539,13.539,0,0,0,1.629-3.924A3.412,3.412,0,0,1,28.711,17.695ZM17.756,23.185a5.5,5.5,0,1,1,5.5-5.5A5.5,5.5,0,0,1,17.756,23.185Z" transform="translate(-4.5 -4.5)"/></svg>