<svg xmlns="http://www.w3.org/2000/svg" width="28.875" height="33" viewBox="0 0 28.875 33"><defs><style>.a{fill:#00a388;}</style></defs><path class="a" d="M14.437,33a4.124,4.124,0,0,0,4.123-4.125H10.314A4.124,4.124,0,0,0,14.437,33ZM28.32,23.351c-1.245-1.338-3.575-3.351-3.575-9.944a10.178,10.178,0,0,0-8.246-10V2.063a2.061,2.061,0,1,0-4.122,0V3.406a10.178,10.178,0,0,0-8.246,10C4.13,20,1.8,22.013.555,23.351A2.014,2.014,0,0,0,0,24.75a2.064,2.064,0,0,0,2.069,2.063H26.806a2.064,2.064,0,0,0,2.069-2.062,2.013,2.013,0,0,0-.555-1.4Z" transform="translate(0)"/></svg>